<svg width="78" height="78" viewBox="0 0 78 78" fill="none" xmlns="http://www.w3.org/2000/svg">
<path d="M29.25 38.1875C27.0075 38.1875 25.1875 40.0075 25.1875 42.25C25.1875 44.4925 27.0075 46.3125 29.25 46.3125C31.4925 46.3125 33.3125 44.4925 33.3125 42.25C33.3125 40.0075 31.4925 38.1875 29.25 38.1875ZM48.75 38.1875C46.5075 38.1875 44.6875 40.0075 44.6875 42.25C44.6875 44.4925 46.5075 46.3125 48.75 46.3125C50.9925 46.3125 52.8125 44.4925 52.8125 42.25C52.8125 40.0075 50.9925 38.1875 48.75 38.1875ZM39 6.5C21.06 6.5 6.5 21.06 6.5 39C6.5 56.94 21.06 71.5 39 71.5C56.94 71.5 71.5 56.94 71.5 39C71.5 21.06 56.94 6.5 39 6.5ZM39 65C24.6675 65 13 53.3325 13 39C13 38.0575 13.065 37.115 13.1625 36.205C20.8325 32.7925 26.91 26.52 30.095 18.7525C35.9775 27.0725 45.6625 32.5 56.615 32.5C59.15 32.5 61.5875 32.2075 63.9275 31.655C64.61 33.9625 65 36.4325 65 39C65 53.3325 53.3325 65 39 65Z" fill="white"/>
</svg>
